# xmcd
#
# Track frame offsets:
# 150
# 9305
# 20455
# 33670
# 42995
# 56745
# 66975
# 79425
# 95720
# 110765
# 123535
# 134262
# 147562
# 159373
# 169685
# 187280
# 198445
# 208420
# 220090
# 231645
# 242605
# 253976
# 266426
# 277406
#
# Disc length: 3850 seconds
#
#
# Revision: 0
# Processed by: cddbd v1.5.1PL0 Copyright (c) Steve Scherf et al.
# Submitted via: FreeRIP 2.942 
#
DISCID=870f0818
DTITLE=Soul On Wax [Sheridans]
DYEAR=1900
DGENRE=
TTITLE0=Art  Falls - I Want You Baby
TTITLE1=Sheryl -  Can't Get Him Off My Mind
TTITLE2=Art Wwheeler - Coming Attractions
TTITLE3=Barbara Mason - Don't You Ever Go Away
TTITLE4=El Anthony - That's What My Lady Thinks
TTITLE5=Emmanuel Laskey - Sweet Lies
TTITLE6=The Fantaisions - Unnecessary Tears
TTITLE7=Miles Jay - HEAVEN
TTITLE8=Jerry Tiffe - Hey Watcha Doin
TTITLE9=Bobby Long and The Dealers - I Gotta Love Too
TTITLE10=Timothy Wilson - I Must Love You
TTITLE11=Elouise Laws - I Think You Need Love
TTITLE12=The Volcanoes - It's Gotta Be A False Alarm
TTITLE13=Jimmy Ray - You Must Be Losing Your Mind
TTITLE14=Teddy Pendergrass - Keep On Loving Me
TTITLE15=Jackie Ross - Keep Your Chin Up
TTITLE16=Larry Santos - Can't Get You Off My Mind
TTITLE17=The Sensations - Lonely World
TTITLE18=The Chaumonts - Love Is The Thing
TTITLE19=The Fantasstics - Me And You
TTITLE20=Sunny and The Sunliners - Should I Take You Home
TTITLE21=The Cheers - Take Me To Paradise
TTITLE22=Victor Johnson - When you Say Your Mine
TTITLE23=Candace Love - Wnderful Night
EXTD=
EXTT0=
EXTT1=
EXTT2=
EXTT3=
EXTT4=
EXTT5=
EXTT6=
EXTT7=
EXTT8=
EXTT9=
EXTT10=
EXTT11=
EXTT12=
EXTT13=
EXTT14=
EXTT15=
EXTT16=
EXTT17=
EXTT18=
EXTT19=
EXTT20=
EXTT21=
EXTT22=
EXTT23=
PLAYORDER=
